HIERARCHY
ROOT root
{
	OFFSET 0.000000 0.000000 0.000000
	CHANNELS 6 Xposition Yposition Zposition Zrotation Yrotation Xrotation
	JOINT lhip
	{
		OFFSET 0.058581 -0.082280 -0.017664
		CHANNELS 3 Zrotation Yrotation Xrotation
		JOINT lknee
		{
			OFFSET 0.043451 -0.386469 0.008037
			CHANNELS 3 Zrotation Yrotation Xrotation
			JOINT lankle
			{
				OFFSET -0.014790 -0.426874 -0.037428
				CHANNELS 3 Zrotation Yrotation Xrotation
				JOINT ltoe
				{
					OFFSET 0.041054 -0.060286 0.122042
					CHANNELS 3 Zrotation Yrotation Xrotation
					End Site
					{
						OFFSET 0.000000 0.000000 0.000000
					}
				}
			}
		}
	}
	JOINT rhip
	{
		OFFSET -0.060310 -0.090513 -0.013543
		CHANNELS 3 Zrotation Yrotation Xrotation
		JOINT rknee
		{
			OFFSET -0.043257 -0.383688 -0.004843
			CHANNELS 3 Zrotation Yrotation Xrotation
			JOINT rankle
			{
				OFFSET 0.019056 -0.420046 -0.034562
				CHANNELS 3 Zrotation Yrotation Xrotation
				JOINT rtoe
				{
					OFFSET -0.034840 -0.062106 0.130323
					CHANNELS 3 Zrotation Yrotation Xrotation
					End Site
					{
						OFFSET 0.000000 0.000000 0.000000
					}
				}
			}
		}
	}
	JOINT lowerback
	{
		OFFSET 0.004439 0.124404 -0.038385
		CHANNELS 3 Zrotation Yrotation Xrotation
		JOINT upperback
		{
			OFFSET 0.004488 0.137956 0.026820
			CHANNELS 3 Zrotation Yrotation Xrotation
			JOINT chest
			{
				OFFSET -0.002265 0.056032 0.002855
				CHANNELS 3 Zrotation Yrotation Xrotation
				JOINT lowerneck
				{
					OFFSET -0.013390 0.211636 -0.033468
					CHANNELS 3 Zrotation Yrotation Xrotation
					JOINT upperneck
					{
						OFFSET 0.010113 0.088937 0.050410
						CHANNELS 3 Zrotation Yrotation Xrotation
						End Site
						{
							OFFSET 0.000000 0.000000 0.000000
						}
					}
				}
				JOINT lclavicle
				{
					OFFSET 0.071702 0.114000 -0.018898
					CHANNELS 3 Zrotation Yrotation Xrotation
					JOINT lshoulder
					{
						OFFSET 0.122921 0.045205 -0.019046
						CHANNELS 3 Zrotation Yrotation Xrotation
						JOINT lelbow
						{
							OFFSET 0.255332 -0.015649 -0.022946
							CHANNELS 3 Zrotation Yrotation Xrotation
							JOINT lwrist
							{
								OFFSET 0.265709 0.012698 -0.007375
								CHANNELS 3 Zrotation Yrotation Xrotation
								End Site
								{
									OFFSET 0.000000 0.000000 0.000000
								}
							}
						}
					}
				}
				JOINT rclavicle
				{
					OFFSET -0.082954 0.112472 -0.023707
					CHANNELS 3 Zrotation Yrotation Xrotation
					JOINT rshoulder
					{
						OFFSET -0.113228 0.046853 -0.008472
						CHANNELS 3 Zrotation Yrotation Xrotation
						JOINT relbow
						{
							OFFSET -0.260127 -0.014369 -0.031269
							CHANNELS 3 Zrotation Yrotation Xrotation
							JOINT rwrist
							{
								OFFSET -0.269108 0.006794 -0.006027
								CHANNELS 3 Zrotation Yrotation Xrotation
								End Site
								{
									OFFSET 0.000000 0.000000 0.000000
								}
							}
						}
					}
				}
			}
		}
	}
}
MOTION
Frames: 16
Frame Time: 0.033333
0.019709 0.230267 0.989178 88.641157 0.533743 89.829911 6.936660 2.409274 -0.829434 -3.585919 -6.574867 4.044866 -0.243833 8.072934 -6.224307 0.000000 -0.000000 0.000000 -6.015113 -2.850698 -1.314803 1.781295 2.166331 3.548592 2.538877 -3.583905 -4.572749 0.000000 -0.000000 0.000000 0.185144 2.541945 6.533109 -1.424782 -2.552146 6.147776 -2.291125 -0.158564 -8.940741 -1.621634 -8.821467 1.891501 3.145437 -6.132263 5.158529 -31.893282 0.425248 3.132780 -47.824191 -1.344198 12.889820 14.066443 -34.112226 -0.493239 -5.346346 -11.604728 2.208888 26.752214 5.597865 5.042411 49.276678 1.733276 15.929334 -2.952050 30.604195 9.430279 7.603670 7.265112 6.062259 
0.019529 0.230006 0.989101 88.636219 0.594323 89.751431 7.018840 2.431303 -0.748865 -3.646474 -6.753990 4.043720 -0.436453 8.181164 -6.204740 0.000000 -0.000000 0.000000 -5.844773 -2.783631 -1.171360 1.528491 2.323492 3.421012 2.737540 -3.831819 -4.674101 0.000000 -0.000000 0.000000 0.262935 2.483922 6.666320 -1.566025 -2.574119 5.555230 -2.200762 -0.101827 -8.430434 -1.770767 -9.012008 2.024948 3.319541 -5.900289 4.983906 -31.856112 0.050620 3.478069 -47.590954 -1.864176 12.676641 13.946752 -35.617859 -0.345593 -5.052096 -11.621597 1.743082 26.537762 5.851193 5.078019 49.545835 1.773512 15.894797 -3.063827 31.506139 9.447399 7.585583 7.440309 5.699078 
0.019247 0.230002 0.989188 88.614896 0.553426 89.831324 6.960985 2.410339 -0.877924 -3.628584 -6.635913 4.087350 -0.397401 8.071355 -6.205869 0.000000 -0.000000 0.000000 -5.904659 -2.831621 -1.317097 1.547561 2.298966 3.471176 2.724985 -3.642188 -4.684452 0.000000 -0.000000 0.000000 0.140669 2.494702 6.487845 -1.521634 -2.626911 5.620042 -2.159379 -0.184497 -8.466561 -1.786673 -8.869621 2.023673 3.345178 -5.976520 5.002629 -31.787316 -0.169537 3.482746 -47.530923 -2.213507 12.638528 13.741846 -36.500762 -0.496561 -4.620214 -11.993048 1.482143 26.503746 5.947548 5.092153 49.533706 1.928918 15.954686 -3.010487 32.285876 9.546402 7.554828 7.642499 5.666239 
0.018753 0.230336 0.989381 88.665512 0.470867 89.997709 6.838264 2.666104 -1.222029 -3.630053 -6.744503 4.304766 -0.381080 7.862594 -6.295382 0.000000 -0.000000 0.000000 -6.054261 -2.796503 -1.582917 1.578348 2.055019 3.594344 2.761769 -3.586832 -4.614797 0.000000 -0.000000 0.000000 0.045304 2.287948 6.365048 -1.485694 -2.651159 5.558353 -2.199966 -0.165070 -8.639980 -1.788762 -8.819165 2.056664 3.289016 -5.934449 5.103789 -31.664095 -0.219642 3.380605 -47.543914 -2.380574 12.875505 13.957174 -37.870537 -0.507946 -4.245457 -11.982857 1.689322 26.487405 5.929498 5.073673 49.586976 1.948637 15.985173 -3.102428 33.188059 9.453271 7.421904 7.684779 5.603888 
0.018820 0.230413 0.989396 88.615873 0.455846 89.968832 6.809941 2.608204 -1.152533 -3.629851 -6.673119 4.254460 -0.388833 7.839301 -6.278695 0.000000 -0.000000 0.000000 -6.086993 -2.775141 -1.571408 1.579727 2.041238 3.614987 2.777730 -3.520804 -4.625472 0.000000 -0.000000 0.000000 0.048249 2.274493 6.316500 -1.504445 -2.638154 5.605071 -2.216296 -0.173915 -8.719510 -1.795042 -8.719950 2.086481 3.291285 -5.937593 5.097099 -31.605953 -0.297648 3.429909 -47.461510 -2.443974 12.914706 14.161545 -38.693001 -0.387489 -4.110018 -12.234852 1.875535 26.469938 5.990069 5.145976 49.617761 1.983928 15.950976 -3.184605 33.490458 9.512686 7.437479 7.692870 5.557240 
0.018849 0.230343 0.989467 88.531377 0.524142 89.866731 6.910037 2.629502 -1.022466 -3.646104 -6.621002 4.237088 -0.345679 7.816787 -6.316870 0.000000 -0.000000 0.000000 -6.051201 -2.829922 -1.508294 1.718168 2.047797 3.634085 2.731666 -3.401074 -4.568273 0.000000 -0.000000 0.000000 0.099493 2.295131 6.389125 -1.502310 -2.592391 5.579497 -2.206365 -0.176655 -8.761893 -1.743266 -8.658639 2.113317 3.253789 -5.942295 5.154560 -31.598002 -0.328492 3.417723 -47.412267 -2.607914 12.815741 14.218940 -39.217237 -0.436916 -4.116334 -11.997036 1.775518 26.497940 5.998919 5.141051 49.557552 2.054290 15.955524 -3.200897 33.655502 9.542386 7.524570 7.605154 5.454709 
0.018791 0.230361 0.989307 88.443259 0.521298 89.835342 6.892980 2.590729 -0.976353 -3.650294 -6.552048 4.235671 -0.328880 7.864389 -6.322734 0.000000 -0.000000 0.000000 -6.011581 -2.756754 -1.476895 1.554084 2.193998 3.588680 2.807507 -3.397835 -4.626560 0.000000 -0.000000 0.000000 0.083163 2.336833 6.282912 -1.485184 -2.553310 5.630167 -2.212250 -0.165043 -8.740125 -1.745519 -8.612705 2.128605 3.203711 -5.925248 5.227939 -31.485625 -0.365839 3.336603 -47.553386 -2.711171 12.832702 14.350755 -39.305789 -0.629333 -4.035105 -11.902464 1.652676 26.480310 6.060010 5.155046 49.563567 2.191484 15.995721 -3.242332 33.502333 9.442886 7.444043 7.601893 5.505197 
0.018728 0.230558 0.989363 88.405510 0.513296 89.818549 6.849517 2.562714 -0.972718 -3.623595 -6.525889 4.263676 -0.303708 7.903085 -6.347556 0.000000 -0.000000 0.000000 -6.037415 -2.705518 -1.464542 1.589804 2.254445 3.552196 2.754926 -3.367540 -4.617327 0.000000 -0.000000 0.000000 0.086426 2.338902 6.185432 -1.474043 -2.558572 5.692610 -2.212867 -0.143523 -8.763223 -1.791379 -8.527066 2.165529 3.185219 -5.874770 5.244957 -31.524165 -0.350599 3.309329 -47.528056 -2.746045 12.810737 14.399575 -39.047260 -0.696411 -4.242865 -12.032412 1.813813 26.601298 6.160687 5.208033 49.440586 2.249244 16.012243 -3.305698 33.198881 9.341445 7.591921 7.595331 5.668547 
0.018513 0.230698 0.989360 88.477317 0.527225 89.806612 6.869783 2.607463 -1.009474 -3.657838 -6.609751 4.312243 -0.343232 7.848330 -6.326918 0.000000 -0.000000 0.000000 -6.048370 -2.732573 -1.515867 1.617254 2.084391 3.711311 2.774151 -3.451081 -4.624519 0.000000 -0.000000 0.000000 0.106934 2.276319 6.178200 -1.462517 -2.552181 5.669759 -2.214478 -0.116582 -8.752050 -1.777446 -8.460181 2.117915 3.151025 -5.873834 5.225181 -31.487541 -0.352621 3.262629 -47.582813 -2.650619 12.834579 14.410297 -38.647597 -0.694329 -4.240657 -11.961398 1.804599 26.669796 6.198292 5.217398 49.371598 2.265129 15.991591 -3.264511 32.833254 9.336695 7.557944 7.546948 5.751892 
0.018366 0.230668 0.989304 88.452079 0.532017 89.705192 6.888951 2.491165 -0.846348 -3.675626 -6.581856 4.201952 -0.328247 7.955852 -6.277340 0.000000 -0.000000 0.000000 -6.013016 -2.721587 -1.428798 1.552557 2.205152 3.730527 2.845327 -3.509356 -4.687705 0.000000 -0.000000 0.000000 0.119437 2.346759 6.268750 -1.470730 -2.522536 5.678366 -2.185201 -0.104790 -8.681812 -1.771464 -8.375753 1.971739 3.188088 -5.750210 4.987269 -31.387243 -0.326591 3.275975 -47.777058 -2.526280 12.773873 14.213612 -37.573995 -0.663749 -4.395213 -11.973063 1.568949 26.621587 6.266479 5.214324 49.470406 2.318808 15.998272 -3.274254 32.149077 9.206546 7.568511 7.572728 5.821791 
0.018234 0.230830 0.989273 88.462917 0.563847 89.665483 6.913187 2.371421 -0.755473 -3.679983 -6.591851 4.078757 -0.357942 8.041930 -6.174320 0.000000 -0.000000 0.000000 -5.951621 -2.722555 -1.369984 1.511697 2.279061 3.671273 2.821285 -3.593781 -4.666255 0.000000 -0.000000 0.000000 0.198392 2.450630 6.299505 -1.480366 -2.537412 5.721008 -2.173956 -0.098220 -8.611895 -1.743027 -8.218439 1.679260 3.241979 -5.599114 4.714372 -31.485251 -0.386985 3.226430 -47.696602 -2.370697 12.693766 14.105982 -36.479996 -0.680090 -4.800736 -11.972421 1.548339 26.670147 6.286438 5.226698 49.441871 2.253434 15.971153 -3.298899 31.723493 9.197870 7.550243 7.614779 5.919596 
0.017870 0.231057 0.989283 88.482666 0.607611 89.644650 6.955552 2.420021 -0.721686 -3.685417 -6.694436 4.006063 -0.380497 8.100410 -6.115132 0.000000 -0.000000 0.000000 -5.906637 -2.824320 -1.380302 1.547018 2.339681 3.680431 2.804236 -3.614451 -4.599062 0.000000 -0.000000 0.000000 0.301555 2.516828 6.404187 -1.492302 -2.560720 5.754703 -2.178981 -0.065001 -8.629279 -1.740441 -8.148366 1.669154 3.414694 -5.397046 4.110652 -31.576884 -0.421039 3.185880 -47.730402 -2.095520 12.748896 14.070341 -35.392690 -0.558503 -4.850841 -11.752873 1.820100 26.667783 6.334401 5.193837 49.452844 2.128777 15.978785 -3.188871 31.066657 9.312258 7.277147 7.491712 6.130258 
0.017408 0.231225 0.989251 88.552935 0.623323 89.770647 6.957517 2.434845 -0.912395 -3.693132 -6.783614 4.037548 -0.404289 8.143825 -6.063439 0.000000 -0.000000 0.000000 -5.853015 -2.844190 -1.528882 1.463504 2.458599 3.689354 2.858479 -3.750627 -4.613934 0.000000 -0.000000 0.000000 0.340598 2.573158 6.403541 -1.469557 -2.590445 5.750495 -2.174693 -0.056689 -8.638097 -1.721607 -8.020517 1.385291 3.588502 -5.251476 3.585756 -31.588118 -0.370593 3.057432 -47.793582 -1.743146 12.856515 14.054828 -34.328135 -0.260833 -5.649432 -11.548671 2.338337 26.680478 6.274604 5.059713 49.445325 1.951922 15.969755 -3.157087 30.601610 9.476583 7.753184 7.468115 6.477401 
0.017431 0.231256 0.989263 88.614567 0.637326 89.561177 6.973565 2.213963 -0.622095 -3.687808 -6.764676 3.907908 -0.467819 8.254878 -5.960868 0.000000 -0.000000 0.000000 -5.814546 -2.635963 -1.197319 1.421728 2.397553 3.552228 2.775084 -3.937514 -4.666653 0.000000 -0.000000 0.000000 0.375438 2.594498 6.712747 -1.467294 -2.611769 5.745449 -2.111732 -0.050215 -8.462694 -1.634851 -7.802416 1.091928 3.768404 -5.025279 2.704644 -31.644717 -0.367722 2.921408 -47.886089 -1.398281 12.823590 13.947257 -33.148602 -0.016472 -5.774176 -11.392268 2.694734 26.661404 6.295648 4.868927 49.468752 1.858997 15.984551 -3.079218 30.075506 9.530843 7.758008 7.310638 6.619376 
0.016586 0.231507 0.989400 88.750386 0.695119 89.754126 7.015759 2.507152 -1.009710 -3.677798 -7.016647 4.063588 -0.582904 8.185817 -5.914224 0.000000 -0.000000 0.000000 -5.770469 -2.732929 -1.502394 1.562218 2.361777 3.651807 2.713967 -3.940455 -4.588390 0.000000 -0.000000 0.000000 0.460698 2.503598 6.640807 -1.409736 -2.682370 5.848657 -2.108929 -0.003880 -8.478686 -1.610128 -7.602995 0.803005 3.920344 -4.776244 1.901642 -31.679934 -0.287702 2.730188 -48.023250 -1.065636 12.926150 13.858755 -31.783701 0.094530 -6.081100 -11.081829 3.359286 26.692426 6.264003 4.721723 49.419344 1.761861 15.919897 -3.009873 29.643256 9.511714 7.754254 7.285865 7.029426 
0.016064 0.231531 0.989519 88.731367 0.672812 89.803906 6.969885 2.591585 -1.104842 -3.685488 -7.143365 4.119024 -0.570366 8.263576 -5.925963 0.000000 -0.000000 0.000000 -5.730928 -2.760540 -1.547935 1.396339 2.570825 3.584247 2.692241 -4.133299 -4.657032 0.000000 -0.000000 0.000000 0.473951 2.517358 6.680410 -1.413098 -2.676770 5.980485 -2.151101 0.022347 -8.490082 -1.468631 -7.433785 0.210039 3.971689 -4.466036 1.551583 -31.902914 -0.225469 2.639744 -47.671305 -0.748003 13.014508 13.548244 -31.093845 0.422621 -6.293396 -10.811827 3.632127 26.858566 6.198855 4.561990 49.294223 1.683113 15.936812 -2.892453 29.287885 9.575623 7.917215 7.034842 7.234452 
